<svg xlink="http://www.w3.org/1999/xlink" viewBox="0 0 5000 5000" xmlns="http://www.w3.org/2000/svg" style="transform: scale(1);"><defs><filter id="goo"><feGaussianBlur in="SourceGraphic" stdDeviation="0" result="blur"></feGaussianBlur><feColorMatrix in="blur" type="matrix" values="1 0 0 0 0 0 1 0 0 0 0 0 1 0 0 0 0 0 19 -9" result="good"></feColorMatrix><feComposite in="SourceGraphic" in2="goo" operator="atop"></feComposite></filter><path d="M269,223L278,268Q250,300 221,266L254,217C255,234 258,235 269,223z" id="P0"></path><path d="M253,267L236,260L236,240L259,236L253,267z" id="P1"></path><path d="M234,283C221,277 214,264 213,252C231,245 234,240 226,221C254,229 268,240 284,264C274,283 253,290 234,283z" id="P2"></path><path d="M242,238L264,247L264,253L237,255L242,238z" id="P3"></path><path d="M231,244L250,230L270,250C269,260 262,268 250,270L231,244z" id="P4"></path><path d="M248,265L244,236L254,235L265,249L248,265z" id="P5"></path><path d="M272,250C261,251 261,251 271,255C263,271 245,274 232,263C227,254 227,244 234,235C250,225 268,233 272,250z" id="P6"></path><path d="M259,264L233,252L241,236L257,235L259,264z" id="P7"></path><path d="M260,272Q229,279 226,248L240,228L274,246Q283,265 260,272z" id="P8"></path><path d="M264,263L232,257L255,232L266,260L264,263z" id="P9"></path><path d="M238,234L269,243L237,265Q222,261 230,247Q224,236 238,234z" id="P10"></path><path d="M235,251L239,240L264,244L256,264L235,251z" id="P11"></path></defs><rect id="RECT" width="5000" height="5000" fill="#020617"></rect><g id="group" fill="#192734" filter=""><use x="-813" y="-764" href="#P3"></use><use x="-987" y="-511" href="#P4"></use><use x="-966" y="-364" href="#P3"></use><use x="-966" y="-51" href="#P4"></use><use x="-1106" y="87" href="#P5"></use><use x="-1284" y="515" href="#P8"></use><use x="-1259" y="807" href="#P9"></use><use x="-1350" y="1056" href="#P0"></use><use x="-1210" y="1262" href="#P2"></use><use x="-1374" y="1611" href="#P8"></use><use x="-1447" y="1819" href="#P7"></use><use x="-1310" y="2186" href="#P4"></use><use x="-1283" y="2539" href="#P4"></use><use x="-1366" y="2766" href="#P8"></use><use x="-1337" y="3285" href="#P2"></use><use x="-1408" y="3621" href="#P11"></use><use x="-1249" y="3778" href="#P6"></use><use x="-1189" y="4075" href="#P10"></use><use x="-1256" y="4482" href="#P2"></use><use x="-1229" y="4617" href="#P7"></use><use x="-1117" y="4889" href="#P4"></use><use x="-903" y="5242" href="#P9"></use><use x="-879" y="5600" href="#P11"></use><use x="-768" y="5747" href="#P0"></use><use x="-863" y="5820" href="#P1"></use><use x="-703" y="-838" href="#P6"></use><use x="-685" y="-623" href="#P2"></use><use x="-762" y="-484" href="#P1"></use><use x="-824" y="-159" href="#P1"></use><use x="-892" y="58" href="#P8"></use><use x="-871" y="427" href="#P7"></use><use x="-995" y="605" href="#P2"></use><use x="-1045" y="802" href="#P7"></use><use x="-1093" y="1363" href="#P6"></use><use x="-1234" y="1676" href="#P6"></use><use x="-1222" y="1882" href="#P1"></use><use x="-1033" y="2098" href="#P2"></use><use x="-1122" y="2713" href="#P5"></use><use x="-1187" y="2994" href="#P0"></use><use x="-1185" y="3299" href="#P2"></use><use x="-1179" y="3595" href="#P2"></use><use x="-1069" y="3989" href="#P8"></use><use x="-948" y="4195" href="#P4"></use><use x="-983" y="4665" href="#P5"></use><use x="-870" y="4917" href="#P5"></use><use x="-830" y="5174" href="#P0"></use><use x="-865" y="5254" href="#P5"></use><use x="-701" y="5681" href="#P7"></use><use x="-623" y="5805" href="#P11"></use><use x="-446" y="6110" href="#P6"></use><use x="-419" y="-980" href="#P0"></use><use x="-486" y="-849" href="#P2"></use><use x="-525" y="-440" href="#P10"></use><use x="-673" y="-355" href="#P5"></use><use x="-563" y="-99" href="#P10"></use><use x="-739" y="232" href="#P6"></use><use x="-721" y="561" href="#P4"></use><use x="-850" y="963" href="#P6"></use><use x="-710" y="1045" href="#P1"></use><use x="-880" y="1571" href="#P7"></use><use x="-1016" y="2055" href="#P3"></use><use x="-955" y="2235" href="#P0"></use><use x="-955" y="2531" href="#P0"></use><use x="-810" y="2914" href="#P6"></use><use x="-784" y="3228" href="#P7"></use><use x="-739" y="3731" href="#P2"></use><use x="-928" y="3983" href="#P5"></use><use x="-787" y="4126" href="#P9"></use><use x="-652" y="4548" href="#P4"></use><use x="-735" y="4849" href="#P10"></use><use x="-600" y="5204" href="#P0"></use><use x="-619" y="5324" href="#P4"></use><use x="-533" y="5526" href="#P8"></use><use x="-382" y="5817" href="#P4"></use><use x="-248" y="6125" href="#P1"></use><use x="-87" y="-958" href="#P4"></use><use x="-270" y="-762" href="#P2"></use><use x="-243" y="-519" href="#P8"></use><use x="-254" y="-430" href="#P2"></use><use x="-361" y="-137" href="#P5"></use><use x="-461" y="161" href="#P11"></use><use x="-564" y="556" href="#P5"></use><use x="-507" y="683" href="#P8"></use><use x="-521" y="1242" href="#P10"></use><use x="-558" y="1588" href="#P10"></use><use x="-745" y="1775" href="#P1"></use><use x="-640" y="2194" href="#P4"></use><use x="-614" y="2706" href="#P8"></use><use x="-509" y="2813" href="#P8"></use><use x="-480" y="3455" href="#P4"></use><use x="-600" y="3649" href="#P0"></use><use x="-635" y="4071" href="#P6"></use><use x="-614" y="4263" href="#P10"></use><use x="-447" y="4547" href="#P4"></use><use x="-354" y="4842" href="#P11"></use><use x="-433" y="5318" href="#P2"></use><use x="-287" y="5429" href="#P9"></use><use x="-315" y="5701" href="#P6"></use><use x="-144" y="5902" href="#P3"></use><use x="-11" y="6122" href="#P4"></use><use x="100" y="-1077" href="#P5"></use><use x="75" y="-830" href="#P11"></use><use x="92" y="-658" href="#P9"></use><use x="84" y="-367" href="#P4"></use><use x="-181" y="-116" href="#P0"></use><use x="-85" y="300" href="#P7"></use><use x="-310" y="570" href="#P0"></use><use x="-256" y="688" href="#P2"></use><use x="-314" y="1248" href="#P3"></use><use x="-418" y="1659" href="#P3"></use><use x="-214" y="1864" href="#P8"></use><use x="-257" y="2241" href="#P9"></use><use x="-473" y="2656" href="#P8"></use><use x="-219" y="2874" href="#P4"></use><use x="-450" y="3315" href="#P1"></use><use x="-191" y="3617" href="#P3"></use><use x="-348" y="3897" href="#P9"></use><use x="-313" y="4466" href="#P10"></use><use x="-30" y="4849" href="#P7"></use><use x="-232" y="5026" href="#P3"></use><use x="60" y="5310" href="#P1"></use><use x="62" y="5604" href="#P3"></use><use x="-75" y="5790" href="#P9"></use><use x="189" y="5946" href="#P6"></use><use x="114" y="6271" href="#P0"></use><use x="485" y="-1263" href="#P2"></use><use x="281" y="-1002" href="#P10"></use><use x="346" y="-741" href="#P2"></use><use x="385" y="-580" href="#P10"></use><use x="219" y="-105" href="#P7"></use><use x="7" y="143" href="#P2"></use><use x="174" y="289" href="#P2"></use><use x="53" y="888" href="#P7"></use><use x="82" y="1241" href="#P3"></use><use x="-126" y="1569" href="#P10"></use><use x="125" y="1963" href="#P0"></use><use x="-103" y="2314" href="#P6"></use><use x="9" y="2532" href="#P7"></use><use x="-11" y="2934" href="#P2"></use><use x="87" y="3227" href="#P8"></use><use x="102" y="3636" href="#P2"></use><use x="35" y="4051" href="#P2"></use><use x="-65" y="4438" href="#P1"></use><use x="98" y="4728" href="#P1"></use><use x="207" y="5016" href="#P2"></use><use x="226" y="5383" href="#P9"></use><use x="353" y="5676" href="#P0"></use><use x="401" y="5755" href="#P11"></use><use x="441" y="6004" href="#P3"></use><use x="406" y="6279" href="#P1"></use><use x="587" y="-1145" href="#P8"></use><use x="587" y="-951" href="#P5"></use><use x="759" y="-795" href="#P1"></use><use x="679" y="-603" href="#P1"></use><use x="566" y="-161" href="#P7"></use><use x="436" y="-27" href="#P9"></use><use x="371" y="414" href="#P3"></use><use x="310" y="770" href="#P7"></use><use x="496" y="982" href="#P6"></use><use x="460" y="1281" href="#P2"></use><use x="197" y="1984" href="#P5"></use><use x="247" y="2283" href="#P2"></use><use x="428" y="2797" href="#P1"></use><use x="443" y="2850" href="#P10"></use><use x="379" y="3307" href="#P11"></use><use x="190" y="3595" href="#P3"></use><use x="521" y="4084" href="#P3"></use><use x="327" y="4580" href="#P10"></use><use x="354" y="4889" href="#P11"></use><use x="453" y="5227" href="#P6"></use><use x="596" y="5326" href="#P0"></use><use x="522" y="5520" href="#P2"></use><use x="702" y="5991" href="#P9"></use><use x="743" y="6086" href="#P11"></use><use x="626" y="6381" href="#P2"></use><use x="1113" y="-1297" href="#P5"></use><use x="1052" y="-1165" href="#P9"></use><use x="964" y="-767" href="#P10"></use><use x="724" y="-532" href="#P2"></use><use x="1007" y="-313" href="#P0"></use><use x="692" y="-16" href="#P11"></use><use x="842" y="217" href="#P10"></use><use x="828" y="720" href="#P11"></use><use x="811" y="1165" href="#P9"></use><use x="768" y="1263" href="#P2"></use><use x="532" y="1738" href="#P0"></use><use x="702" y="2372" href="#P9"></use><use x="496" y="2585" href="#P4"></use><use x="765" y="3008" href="#P3"></use><use x="544" y="3491" href="#P11"></use><use x="626" y="3932" href="#P10"></use><use x="557" y="4120" href="#P3"></use><use x="586" y="4511" href="#P10"></use><use x="847" y="4883" href="#P7"></use><use x="730" y="4986" href="#P2"></use><use x="1018" y="5332" href="#P10"></use><use x="914" y="5594" href="#P2"></use><use x="1086" y="5985" href="#P10"></use><use x="1010" y="6220" href="#P2"></use><use x="1060" y="6411" href="#P11"></use><use x="1465" y="-1424" href="#P5"></use><use x="1150" y="-1080" href="#P8"></use><use x="1155" y="-868" href="#P8"></use><use x="1280" y="-684" href="#P2"></use><use x="1128" y="-413" href="#P10"></use><use x="1172" y="-94" href="#P7"></use><use x="1303" y="361" href="#P6"></use><use x="1189" y="724" href="#P2"></use><use x="1059" y="1091" href="#P0"></use><use x="1145" y="1343" href="#P10"></use><use x="1190" y="1680" href="#P2"></use><use x="958" y="2012" href="#P11"></use><use x="858" y="2658" href="#P4"></use><use x="1133" y="3138" href="#P1"></use><use x="1192" y="3296" href="#P11"></use><use x="1254" y="3859" href="#P2"></use><use x="1158" y="4208" href="#P5"></use><use x="1251" y="4405" href="#P11"></use><use x="1114" y="4944" href="#P8"></use><use x="1100" y="5178" href="#P4"></use><use x="1310" y="5377" href="#P11"></use><use x="1339" y="5696" href="#P0"></use><use x="1161" y="5956" href="#P7"></use><use x="1324" y="6274" href="#P6"></use><use x="1483" y="6483" href="#P8"></use><use x="1784" y="-1447" href="#P9"></use><use x="1617" y="-1127" href="#P4"></use><use x="1683" y="-871" href="#P9"></use><use x="1473" y="-695" href="#P8"></use><use x="1399" y="-406" href="#P5"></use><use x="1448" y="2" href="#P2"></use><use x="1594" y="169" href="#P8"></use><use x="1424" y="794" href="#P0"></use><use x="1666" y="963" href="#P0"></use><use x="1617" y="1280" href="#P3"></use><use x="1591" y="1728" href="#P4"></use><use x="1527" y="2037" href="#P2"></use><use x="1461" y="2517" href="#P5"></use><use x="1295" y="2866" href="#P3"></use><use x="1409" y="3538" href="#P11"></use><use x="1267" y="3682" href="#P11"></use><use x="1421" y="4186" href="#P4"></use><use x="1657" y="4429" href="#P9"></use><use x="1529" y="4805" href="#P1"></use><use x="1538" y="5254" href="#P7"></use><use x="1626" y="5538" href="#P0"></use><use x="1667" y="5862" href="#P7"></use><use x="1692" y="5930" href="#P3"></use><use x="1631" y="6198" href="#P2"></use><use x="1825" y="6547" href="#P5"></use><use x="2103" y="-1363" href="#P9"></use><use x="2085" y="-1054" href="#P2"></use><use x="1870" y="-824" href="#P11"></use><use x="1861" y="-565" href="#P9"></use><use x="1960" y="-303" href="#P3"></use><use x="1875" y="-21" href="#P9"></use><use x="1947" y="411" href="#P6"></use><use x="1877" y="537" href="#P4"></use><use x="1755" y="902" href="#P1"></use><use x="1722" y="1238" href="#P2"></use><use x="1729" y="1778" href="#P3"></use><use x="1793" y="2247" href="#P0"></use><use x="1699" y="2460" href="#P0"></use><use x="1738" y="3078" href="#P11"></use><use x="1838" y="3408" href="#P4"></use><use x="1925" y="3707" href="#P8"></use><use x="1976" y="4214" href="#P7"></use><use x="1749" y="4685" href="#P8"></use><use x="1736" y="4820" href="#P3"></use><use x="2075" y="5256" href="#P5"></use><use x="2108" y="5546" href="#P3"></use><use x="1794" y="5770" href="#P11"></use><use x="2044" y="6071" href="#P11"></use><use x="1871" y="6273" href="#P1"></use><use x="2016" y="6467" href="#P7"></use><use x="2396" y="-1409" href="#P11"></use><use x="2328" y="-1222" href="#P7"></use><use x="2149" y="-993" href="#P9"></use><use x="2213" y="-530" href="#P5"></use><use x="2436" y="-489" href="#P3"></use><use x="2310" y="-58" href="#P10"></use><use x="2329" y="221" href="#P0"></use><use x="2306" y="535" href="#P6"></use><use x="2371" y="897" href="#P1"></use><use x="2243" y="1474" href="#P5"></use><use x="2413" y="1805" href="#P11"></use><use x="2102" y="2367" href="#P10"></use><use x="2359" y="2466" href="#P2"></use><use x="2390" y="2841" href="#P0"></use><use x="2436" y="3613" href="#P1"></use><use x="2437" y="3770" href="#P6"></use><use x="2248" y="4218" href="#P3"></use><use x="2475" y="4586" href="#P11"></use><use x="2255" y="4759" href="#P0"></use><use x="2389" y="5294" href="#P11"></use><use x="2215" y="5457" href="#P1"></use><use x="2451" y="5764" href="#P3"></use><use x="2401" y="5955" href="#P2"></use><use x="2284" y="6276" href="#P8"></use><use x="2320" y="6469" href="#P10"></use><use x="2707" y="-1427" href="#P5"></use><use x="2595" y="-1234" href="#P4"></use><use x="2779" y="-888" href="#P11"></use><use x="2806" y="-594" href="#P2"></use><use x="2722" y="-292" href="#P0"></use><use x="2703" y="-135" href="#P10"></use><use x="2530" y="201" href="#P0"></use><use x="2730" y="752" href="#P8"></use><use x="2840" y="1113" href="#P4"></use><use x="2801" y="1527" href="#P1"></use><use x="2882" y="1576" href="#P7"></use><use x="2541" y="2053" href="#P9"></use><use x="2571" y="2784" href="#P3"></use><use x="2871" y="2898" href="#P2"></use><use x="2765" y="3517" href="#P7"></use><use x="2606" y="3759" href="#P10"></use><use x="2789" y="4127" href="#P10"></use><use x="2652" y="4702" href="#P0"></use><use x="2799" y="4775" href="#P5"></use><use x="2728" y="5168" href="#P4"></use><use x="2695" y="5421" href="#P1"></use><use x="2703" y="5899" href="#P11"></use><use x="2511" y="5969" href="#P9"></use><use x="2749" y="6177" href="#P5"></use><use x="2597" y="6593" href="#P2"></use><use x="3094" y="-1372" href="#P11"></use><use x="3088" y="-1235" href="#P7"></use><use x="2931" y="-940" href="#P6"></use><use x="2991" y="-688" href="#P0"></use><use x="3030" y="-348" href="#P2"></use><use x="2919" y="-187" href="#P10"></use><use x="2953" y="178" href="#P6"></use><use x="3134" y="546" href="#P1"></use><use x="3081" y="1109" href="#P9"></use><use x="2959" y="1304" href="#P7"></use><use x="3340" y="1731" href="#P1"></use><use x="3316" y="2122" href="#P5"></use><use x="3338" y="2659" href="#P0"></use><use x="3224" y="3152" href="#P6"></use><use x="2948" y="3405" href="#P2"></use><use x="2946" y="3788" href="#P5"></use><use x="3251" y="4167" href="#P0"></use><use x="3036" y="4729" href="#P6"></use><use x="3158" y="4989" href="#P2"></use><use x="3120" y="5131" href="#P3"></use><use x="3100" y="5370" href="#P11"></use><use x="3157" y="5653" href="#P5"></use><use x="3074" y="5922" href="#P4"></use><use x="3062" y="6292" href="#P8"></use><use x="2944" y="6509" href="#P1"></use><use x="3204" y="-1259" href="#P2"></use><use x="3399" y="-1172" href="#P6"></use><use x="3254" y="-777" href="#P6"></use><use x="3242" y="-522" href="#P1"></use><use x="3276" y="-414" href="#P4"></use><use x="3327" y="-124" href="#P7"></use><use x="3382" y="259" href="#P6"></use><use x="3482" y="671" href="#P8"></use><use x="3477" y="903" href="#P11"></use><use x="3598" y="1505" href="#P8"></use><use x="3492" y="1577" href="#P6"></use><use x="3729" y="2067" href="#P2"></use><use x="3431" y="2418" href="#P9"></use><use x="3772" y="2876" href="#P10"></use><use x="3510" y="3512" href="#P6"></use><use x="3386" y="3735" href="#P6"></use><use x="3538" y="4293" href="#P2"></use><use x="3408" y="4650" href="#P10"></use><use x="3636" y="4858" href="#P10"></use><use x="3597" y="5128" href="#P3"></use><use x="3413" y="5372" href="#P9"></use><use x="3233" y="5758" href="#P4"></use><use x="3348" y="5999" href="#P1"></use><use x="3234" y="6310" href="#P9"></use><use x="3234" y="6359" href="#P4"></use><use x="3627" y="-1295" href="#P6"></use><use x="3659" y="-1112" href="#P3"></use><use x="3608" y="-806" href="#P8"></use><use x="3932" y="-574" href="#P8"></use><use x="3934" y="-172" href="#P3"></use><use x="3830" y="-101" href="#P5"></use><use x="3906" y="249" href="#P7"></use><use x="3824" y="673" href="#P8"></use><use x="3960" y="1052" href="#P11"></use><use x="3906" y="1307" href="#P11"></use><use x="4091" y="1722" href="#P0"></use><use x="3952" y="2325" href="#P9"></use><use x="4091" y="2666" href="#P8"></use><use x="4089" y="3191" href="#P8"></use><use x="3892" y="3535" href="#P8"></use><use x="3826" y="3885" href="#P1"></use><use x="3807" y="4227" href="#P1"></use><use x="3942" y="4625" href="#P1"></use><use x="3791" y="4795" href="#P4"></use><use x="3886" y="5114" href="#P11"></use><use x="3679" y="5338" href="#P6"></use><use x="3912" y="5660" href="#P9"></use><use x="3678" y="5871" href="#P3"></use><use x="3734" y="6153" href="#P4"></use><use x="3752" y="6415" href="#P11"></use><use x="4079" y="-1328" href="#P10"></use><use x="3860" y="-1074" href="#P7"></use><use x="4045" y="-697" href="#P1"></use><use x="3968" y="-660" href="#P1"></use><use x="4279" y="-184" href="#P3"></use><use x="4339" y="133" href="#P5"></use><use x="4245" y="322" href="#P6"></use><use x="4296" y="842" href="#P9"></use><use x="4176" y="1159" href="#P4"></use><use x="4353" y="1474" href="#P0"></use><use x="4338" y="1976" href="#P2"></use><use x="4465" y="2093" href="#P1"></use><use x="4491" y="2677" href="#P6"></use><use x="4459" y="2935" href="#P0"></use><use x="4433" y="3265" href="#P1"></use><use x="4439" y="3837" href="#P9"></use><use x="4187" y="4277" href="#P4"></use><use x="4119" y="4357" href="#P8"></use><use x="4124" y="4981" href="#P4"></use><use x="4021" y="5188" href="#P0"></use><use x="4214" y="5496" href="#P6"></use><use x="4181" y="5673" href="#P7"></use><use x="3984" y="5894" href="#P11"></use><use x="4033" y="6251" href="#P8"></use><use x="3967" y="6341" href="#P0"></use><use x="4400" y="-1270" href="#P7"></use><use x="4218" y="-1049" href="#P5"></use><use x="4388" y="-772" href="#P5"></use><use x="4466" y="-534" href="#P5"></use><use x="4362" y="-111" href="#P5"></use><use x="4388" y="107" href="#P5"></use><use x="4626" y="376" href="#P4"></use><use x="4727" y="583" href="#P2"></use><use x="4624" y="982" href="#P1"></use><use x="4752" y="1537" href="#P6"></use><use x="4733" y="1817" href="#P11"></use><use x="4786" y="2314" href="#P4"></use><use x="4667" y="2488" href="#P5"></use><use x="4549" y="3158" href="#P4"></use><use x="4621" y="3363" href="#P11"></use><use x="4740" y="3658" href="#P3"></use><use x="4736" y="4090" href="#P9"></use><use x="4765" y="4305" href="#P0"></use><use x="4423" y="4873" href="#P3"></use><use x="4524" y="4942" href="#P3"></use><use x="4442" y="5372" href="#P0"></use><use x="4320" y="5706" href="#P5"></use><use x="4226" y="5913" href="#P9"></use><use x="4235" y="6253" href="#P8"></use><use x="4326" y="6383" href="#P8"></use><use x="4644" y="-1243" href="#P0"></use><use x="4735" y="-932" href="#P3"></use><use x="4729" y="-602" href="#P4"></use><use x="4822" y="-422" href="#P3"></use><use x="4699" y="-251" href="#P4"></use><use x="4801" y="236" href="#P9"></use><use x="4844" y="407" href="#P11"></use><use x="4951" y="595" href="#P0"></use><use x="5081" y="1228" href="#P9"></use><use x="5083" y="1297" href="#P2"></use><use x="4928" y="1687" href="#P6"></use><use x="5094" y="2123" href="#P10"></use><use x="5149" y="2686" href="#P2"></use><use x="5168" y="3078" href="#P11"></use><use x="5145" y="3252" href="#P7"></use><use x="5023" y="3815" href="#P8"></use><use x="4782" y="4219" href="#P4"></use><use x="4855" y="4376" href="#P11"></use><use x="4809" y="4604" href="#P11"></use><use x="4769" y="4951" href="#P3"></use><use x="4878" y="5248" href="#P4"></use><use x="4750" y="5460" href="#P10"></use><use x="4705" y="5864" href="#P5"></use><use x="4647" y="6084" href="#P2"></use><use x="4545" y="6369" href="#P7"></use><use x="4898" y="-1082" href="#P6"></use><use x="4916" y="-903" href="#P9"></use><use x="5087" y="-570" href="#P10"></use><use x="5127" y="-426" href="#P3"></use><use x="5136" y="-122" href="#P8"></use><use x="5116" y="147" href="#P0"></use><use x="5036" y="304" href="#P0"></use><use x="5204" y="838" href="#P7"></use><use x="5193" y="1288" href="#P10"></use><use x="5404" y="1346" href="#P0"></use><use x="5192" y="1877" href="#P10"></use><use x="5190" y="2118" href="#P6"></use><use x="5294" y="2450" href="#P0"></use><use x="5444" y="2935" href="#P3"></use><use x="5437" y="3399" href="#P0"></use><use x="5359" y="3748" href="#P8"></use><use x="5186" y="4031" href="#P0"></use><use x="5111" y="4308" href="#P3"></use><use x="5287" y="4658" href="#P4"></use><use x="4987" y="5075" href="#P6"></use><use x="4950" y="5364" href="#P2"></use><use x="5142" y="5465" href="#P5"></use><use x="4958" y="5803" href="#P9"></use><use x="4796" y="5949" href="#P4"></use><use x="4831" y="6293" href="#P7"></use><use x="5097" y="-1106" href="#P10"></use><use x="5175" y="-759" href="#P11"></use><use x="5344" y="-493" href="#P10"></use><use x="5238" y="-296" href="#P9"></use><use x="5283" y="-79" href="#P7"></use><use x="5352" y="188" href="#P11"></use><use x="5408" y="450" href="#P8"></use><use x="5638" y="802" href="#P8"></use><use x="5562" y="1222" href="#P7"></use><use x="5687" y="1460" href="#P4"></use><use x="5694" y="1870" href="#P8"></use><use x="5679" y="2073" href="#P4"></use><use x="5779" y="2673" href="#P8"></use><use x="5644" y="2927" href="#P3"></use><use x="5577" y="3441" href="#P3"></use><use x="5678" y="3629" href="#P8"></use><use x="5440" y="4026" href="#P4"></use><use x="5502" y="4431" href="#P0"></use><use x="5392" y="4530" href="#P8"></use><use x="5524" y="4936" href="#P0"></use><use x="5334" y="5210" href="#P1"></use><use x="5211" y="5577" href="#P2"></use><use x="5281" y="5612" href="#P0"></use><use x="5108" y="5929" href="#P4"></use><use x="5128" y="6185" href="#P8"></use><use x="5225" y="-1087" href="#P11"></use><use x="5371" y="-759" href="#P7"></use><use x="5571" y="-559" href="#P0"></use><use x="5677" y="-214" href="#P9"></use><use x="5610" y="30" href="#P1"></use><use x="5706" y="388" href="#P2"></use><use x="5876" y="678" href="#P1"></use><use x="5725" y="764" href="#P1"></use><use x="5723" y="1085" href="#P4"></use><use x="5778" y="1572" href="#P1"></use><use x="5966" y="2035" href="#P6"></use><use x="5868" y="2269" href="#P8"></use><use x="5850" y="2586" href="#P10"></use><use x="5902" y="3018" href="#P4"></use><use x="5789" y="3213" href="#P1"></use><use x="5943" y="3525" href="#P6"></use><use x="5722" y="3931" href="#P9"></use><use x="5674" y="4388" href="#P11"></use><use x="5710" y="4662" href="#P11"></use><use x="5580" y="4940" href="#P8"></use><use x="5656" y="5058" href="#P0"></use><use x="5583" y="5348" href="#P7"></use><use x="5456" y="5670" href="#P11"></use><use x="5373" y="5847" href="#P0"></use><use x="5429" y="6000" href="#P9"></use><use x="5670" y="-770" href="#P6"></use><use x="5548" y="-782" href="#P6"></use><use x="5699" y="-448" href="#P1"></use><use x="5801" y="-304" href="#P6"></use><use x="5915" y="9" href="#P4"></use><use x="5824" y="186" href="#P10"></use><use x="6071" y="766" href="#P2"></use><use x="6018" y="882" href="#P3"></use><use x="5998" y="1243" href="#P11"></use><use x="6057" y="1576" href="#P1"></use><use x="6073" y="1847" href="#P0"></use><use x="6056" y="2398" href="#P7"></use><use x="6107" y="2699" href="#P11"></use><use x="6153" y="2880" href="#P11"></use><use x="6159" y="3244" href="#P1"></use><use x="6230" y="3428" href="#P3"></use><use x="6134" y="3852" href="#P3"></use><use x="5952" y="4255" href="#P6"></use><use x="5959" y="4644" href="#P5"></use><use x="5792" y="4885" href="#P7"></use><use x="5716" y="5203" href="#P6"></use><use x="5696" y="5359" href="#P3"></use><use x="5645" y="5634" href="#P4"></use><use x="5747" y="5702" href="#P1"></use><use x="5463" y="6037" href="#P7"></use><use x="5816" y="-819" href="#P4"></use><use x="5951" y="-614" href="#P10"></use><use x="5887" y="-466" href="#P0"></use><use x="5969" y="-254" href="#P9"></use><use x="6178" y="76" href="#P3"></use><use x="6224" y="386" href="#P5"></use><use x="6178" y="636" href="#P9"></use><use x="6217" y="1014" href="#P7"></use><use x="6220" y="1193" href="#P1"></use><use x="6250" y="1584" href="#P6"></use><use x="6431" y="1943" href="#P4"></use><use x="6361" y="2232" href="#P1"></use><use x="6373" y="2635" href="#P3"></use><use x="6439" y="2827" href="#P4"></use><use x="6384" y="3142" href="#P4"></use><use x="6233" y="3728" href="#P2"></use><use x="6273" y="3878" href="#P9"></use><use x="6307" y="4037" href="#P11"></use><use x="6154" y="4377" href="#P8"></use><use x="6121" y="4817" href="#P3"></use><use x="6051" y="4947" href="#P7"></use><use x="6066" y="5343" href="#P9"></use><use x="5872" y="5550" href="#P11"></use><use x="5864" y="5667" href="#P9"></use><use x="5687" y="5867" href="#P5"></use></g></svg>