<svg xlink="http://www.w3.org/1999/xlink" viewBox="0 0 5000 5000" xmlns="http://www.w3.org/2000/svg" style="transform: scale(1);"><defs><filter id="goo"><feGaussianBlur in="SourceGraphic" stdDeviation="0" result="blur"></feGaussianBlur><feColorMatrix in="blur" type="matrix" values="1 0 0 0 0 0 1 0 0 0 0 0 1 0 0 0 0 0 19 -9" result="good"></feColorMatrix><feComposite in="SourceGraphic" in2="goo" operator="atop"></feComposite></filter><path d="M265,213C272,244 268,265 247,290C237,290 228,285 221,277L247,210L265,213z" id="P0"></path><path d="M262,260L255,264L236,244L244,236L262,260z" id="P1"></path><path d="M225,266Q214,224 261,222Q291,231 279,259C273,272 262,280 246,280C243,264 239,261 225,266z" id="P2"></path><path d="M233,242L239,235L268,243L251,269L233,242z" id="P3"></path><path d="M264,281C236,286 214,264 218,237L222,230C243,213 270,218 282,239C286,257 278,273 264,281z" id="P4"></path><path d="M254,241L260,252L251,260L245,242L254,241z" id="P5"></path><path d="M230,244C242,242 246,240 253,229C254,240 256,241 266,237Q279,263 250,271C236,269 228,257 230,244z" id="P6"></path><path d="M261,244L244,261L238,246L250,237L261,244z" id="P7"></path><path d="M222,229Q257,198 282,235Q300,266 265,282L248,285C223,278 211,255 222,229z" id="P8"></path><path d="M244,237L258,238L253,264L236,250L244,237z" id="P9"></path></defs><rect id="RECT" width="5000" height="5000" fill="#FFFFFF"></rect><g id="group" fill="#C0FBCB" filter="" opacity="0.64"><use x="-16" y="-43" href="#P7"></use><use x="-163" y="285" href="#P2"></use><use x="-272" y="623" href="#P5"></use><use x="-135" y="705" href="#P6"></use><use x="-149" y="1141" href="#P4"></use><use x="-145" y="1404" href="#P1"></use><use x="-37" y="2001" href="#P5"></use><use x="-5" y="2141" href="#P6"></use><use x="-17" y="2555" href="#P4"></use><use x="59" y="2956" href="#P5"></use><use x="53" y="3100" href="#P5"></use><use x="76" y="3325" href="#P0"></use><use x="73" y="3815" href="#P9"></use><use x="-78" y="4260" href="#P9"></use><use x="3" y="4434" href="#P1"></use><use x="3" y="4909" href="#P7"></use><use x="-137" y="5059" href="#P3"></use><use x="286" y="-31" href="#P8"></use><use x="154" y="260" href="#P9"></use><use x="228" y="373" href="#P9"></use><use x="273" y="966" href="#P1"></use><use x="202" y="1276" href="#P0"></use><use x="344" y="1366" href="#P9"></use><use x="144" y="1751" href="#P3"></use><use x="325" y="2018" href="#P2"></use><use x="271" y="2457" href="#P5"></use><use x="89" y="2847" href="#P0"></use><use x="280" y="3120" href="#P6"></use><use x="217" y="3459" href="#P6"></use><use x="255" y="3672" href="#P0"></use><use x="222" y="4238" href="#P9"></use><use x="264" y="4681" href="#P7"></use><use x="128" y="4932" href="#P3"></use><use x="335" y="5131" href="#P7"></use><use x="704" y="-120" href="#P9"></use><use x="431" y="88" href="#P3"></use><use x="784" y="456" href="#P2"></use><use x="761" y="850" href="#P6"></use><use x="600" y="1299" href="#P8"></use><use x="461" y="1415" href="#P1"></use><use x="719" y="1826" href="#P6"></use><use x="399" y="2272" href="#P0"></use><use x="593" y="2547" href="#P6"></use><use x="820" y="2744" href="#P4"></use><use x="384" y="3179" href="#P9"></use><use x="494" y="3509" href="#P6"></use><use x="447" y="3760" href="#P3"></use><use x="633" y="4063" href="#P2"></use><use x="507" y="4302" href="#P1"></use><use x="679" y="4597" href="#P7"></use><use x="558" y="5164" href="#P7"></use><use x="933" y="81" href="#P8"></use><use x="878" y="353" href="#P0"></use><use x="873" y="487" href="#P4"></use><use x="883" y="778" href="#P0"></use><use x="843" y="1151" href="#P7"></use><use x="1035" y="1577" href="#P0"></use><use x="920" y="1933" href="#P6"></use><use x="1068" y="2205" href="#P3"></use><use x="1112" y="2573" href="#P4"></use><use x="1045" y="2807" href="#P1"></use><use x="850" y="3254" href="#P6"></use><use x="916" y="3442" href="#P4"></use><use x="931" y="3898" href="#P6"></use><use x="935" y="4104" href="#P4"></use><use x="1067" y="4477" href="#P8"></use><use x="829" y="4613" href="#P9"></use><use x="1119" y="4969" href="#P3"></use><use x="1102" y="-286" href="#P8"></use><use x="1315" y="217" href="#P0"></use><use x="1244" y="568" href="#P9"></use><use x="1362" y="712" href="#P9"></use><use x="1272" y="1390" href="#P7"></use><use x="1344" y="1655" href="#P5"></use><use x="1208" y="1904" href="#P3"></use><use x="1263" y="2277" href="#P1"></use><use x="1293" y="2429" href="#P2"></use><use x="1153" y="2734" href="#P9"></use><use x="1135" y="3089" href="#P1"></use><use x="1439" y="3400" href="#P5"></use><use x="1279" y="3796" href="#P3"></use><use x="1176" y="4269" href="#P5"></use><use x="1311" y="4442" href="#P9"></use><use x="1288" y="4767" href="#P3"></use><use x="1226" y="4948" href="#P2"></use><use x="1633" y="-102" href="#P0"></use><use x="1690" y="236" href="#P6"></use><use x="1811" y="651" href="#P6"></use><use x="1580" y="853" href="#P6"></use><use x="1537" y="1393" href="#P6"></use><use x="1600" y="1520" href="#P8"></use><use x="1813" y="1963" href="#P5"></use><use x="1690" y="2171" href="#P6"></use><use x="1558" y="2437" href="#P1"></use><use x="1710" y="2789" href="#P2"></use><use x="1608" y="3252" href="#P9"></use><use x="1508" y="3543" href="#P1"></use><use x="1600" y="3725" href="#P0"></use><use x="1648" y="4098" href="#P9"></use><use x="1493" y="4583" href="#P2"></use><use x="1666" y="4742" href="#P5"></use><use x="1696" y="5132" href="#P8"></use><use x="1960" y="147" href="#P8"></use><use x="2136" y="212" href="#P7"></use><use x="2081" y="379" href="#P4"></use><use x="1852" y="928" href="#P7"></use><use x="2078" y="1079" href="#P3"></use><use x="2031" y="1449" href="#P2"></use><use x="1898" y="1945" href="#P0"></use><use x="2032" y="2080" href="#P1"></use><use x="1970" y="2597" href="#P7"></use><use x="2098" y="2792" href="#P9"></use><use x="2113" y="2990" href="#P2"></use><use x="1773" y="3379" href="#P2"></use><use x="2012" y="3884" href="#P4"></use><use x="2071" y="3952" href="#P6"></use><use x="2105" y="4277" href="#P7"></use><use x="2003" y="4731" href="#P4"></use><use x="1844" y="5175" href="#P6"></use><use x="2346" y="79" href="#P1"></use><use x="2171" y="231" href="#P5"></use><use x="2382" y="558" href="#P1"></use><use x="2455" y="952" href="#P0"></use><use x="2196" y="1183" href="#P7"></use><use x="2337" y="1610" href="#P5"></use><use x="2251" y="2052" href="#P5"></use><use x="2225" y="2171" href="#P9"></use><use x="2302" y="2474" href="#P0"></use><use x="2413" y="2923" href="#P9"></use><use x="2230" y="3091" href="#P6"></use><use x="2472" y="3292" href="#P6"></use><use x="2313" y="3781" href="#P5"></use><use x="2272" y="4073" href="#P0"></use><use x="2236" y="4407" href="#P0"></use><use x="2214" y="4771" href="#P3"></use><use x="2392" y="4945" href="#P9"></use><use x="2771" y="-60" href="#P3"></use><use x="2507" y="260" href="#P0"></use><use x="2826" y="747" href="#P7"></use><use x="2690" y="1082" href="#P8"></use><use x="2794" y="1238" href="#P6"></use><use x="2690" y="1678" href="#P3"></use><use x="2556" y="1874" href="#P4"></use><use x="2663" y="2076" href="#P8"></use><use x="2687" y="2400" href="#P6"></use><use x="2788" y="2870" href="#P4"></use><use x="2742" y="3183" href="#P1"></use><use x="2559" y="3367" href="#P0"></use><use x="2599" y="3861" href="#P5"></use><use x="2632" y="3893" href="#P1"></use><use x="2533" y="4441" href="#P1"></use><use x="2707" y="4790" href="#P2"></use><use x="2609" y="5105" href="#P7"></use><use x="2969" y="138" href="#P6"></use><use x="3063" y="195" href="#P8"></use><use x="2973" y="421" href="#P2"></use><use x="3116" y="973" href="#P8"></use><use x="3024" y="1194" href="#P4"></use><use x="2943" y="1691" href="#P0"></use><use x="2966" y="1741" href="#P0"></use><use x="2881" y="2213" href="#P9"></use><use x="2951" y="2599" href="#P8"></use><use x="2920" y="2940" href="#P6"></use><use x="2854" y="3177" href="#P3"></use><use x="2965" y="3542" href="#P7"></use><use x="2857" y="3923" href="#P7"></use><use x="2939" y="4093" href="#P5"></use><use x="3110" y="4614" href="#P6"></use><use x="3083" y="4744" href="#P8"></use><use x="3037" y="5122" href="#P5"></use><use x="3429" y="59" href="#P8"></use><use x="3430" y="240" href="#P1"></use><use x="3435" y="373" href="#P7"></use><use x="3312" y="1066" href="#P4"></use><use x="3403" y="1307" href="#P0"></use><use x="3311" y="1385" href="#P3"></use><use x="3517" y="1803" href="#P4"></use><use x="3233" y="2073" href="#P2"></use><use x="3316" y="2593" href="#P2"></use><use x="3336" y="2689" href="#P8"></use><use x="3434" y="3177" href="#P0"></use><use x="3437" y="3519" href="#P2"></use><use x="3256" y="3823" href="#P6"></use><use x="3380" y="4121" href="#P2"></use><use x="3470" y="4528" href="#P4"></use><use x="3398" y="4711" href="#P4"></use><use x="3255" y="4865" href="#P1"></use><use x="3591" y="-53" href="#P5"></use><use x="3546" y="320" href="#P5"></use><use x="3555" y="447" href="#P1"></use><use x="3908" y="702" href="#P2"></use><use x="3795" y="1357" href="#P9"></use><use x="3726" y="1637" href="#P2"></use><use x="3772" y="1736" href="#P2"></use><use x="3667" y="2199" href="#P2"></use><use x="3889" y="2490" href="#P7"></use><use x="3851" y="2732" href="#P8"></use><use x="3715" y="3230" href="#P3"></use><use x="3592" y="3401" href="#P8"></use><use x="3491" y="3707" href="#P8"></use><use x="3748" y="4272" href="#P2"></use><use x="3727" y="4477" href="#P8"></use><use x="3698" y="4583" href="#P9"></use><use x="3545" y="4916" href="#P5"></use><use x="3911" y="-26" href="#P8"></use><use x="4030" y="261" href="#P3"></use><use x="3936" y="516" href="#P9"></use><use x="4045" y="776" href="#P1"></use><use x="4150" y="1181" href="#P0"></use><use x="4039" y="1695" href="#P8"></use><use x="3852" y="1926" href="#P4"></use><use x="4021" y="2206" href="#P0"></use><use x="4041" y="2418" href="#P0"></use><use x="3960" y="2698" href="#P1"></use><use x="3845" y="3067" href="#P9"></use><use x="4123" y="3495" href="#P3"></use><use x="3980" y="3688" href="#P3"></use><use x="4253" y="4030" href="#P3"></use><use x="4147" y="4488" href="#P0"></use><use x="3856" y="4733" href="#P4"></use><use x="4128" y="5314" href="#P6"></use><use x="4320" y="-40" href="#P3"></use><use x="4347" y="246" href="#P9"></use><use x="4495" y="572" href="#P8"></use><use x="4411" y="1047" href="#P9"></use><use x="4510" y="1293" href="#P0"></use><use x="4562" y="1464" href="#P2"></use><use x="4544" y="1812" href="#P7"></use><use x="4435" y="2339" href="#P5"></use><use x="4607" y="2445" href="#P2"></use><use x="4172" y="2852" href="#P2"></use><use x="4518" y="3254" href="#P7"></use><use x="4516" y="3370" href="#P1"></use><use x="4313" y="3715" href="#P5"></use><use x="4294" y="4191" href="#P8"></use><use x="4491" y="4320" href="#P6"></use><use x="4484" y="4629" href="#P7"></use><use x="4498" y="5068" href="#P1"></use><use x="4742" y="-133" href="#P1"></use><use x="4833" y="329" href="#P6"></use><use x="4818" y="732" href="#P1"></use><use x="4608" y="1066" href="#P6"></use><use x="4640" y="1294" href="#P2"></use><use x="4829" y="1631" href="#P7"></use><use x="4671" y="1770" href="#P2"></use><use x="4818" y="2261" href="#P1"></use><use x="4869" y="2609" href="#P7"></use><use x="4828" y="2704" href="#P0"></use><use x="4884" y="3062" href="#P0"></use><use x="4810" y="3429" href="#P5"></use><use x="4601" y="3704" href="#P0"></use><use x="4759" y="3965" href="#P3"></use><use x="4934" y="4558" href="#P7"></use><use x="4681" y="4849" href="#P3"></use><use x="4692" y="5161" href="#P2"></use><use x="4878" y="-62" href="#P3"></use><use x="4997" y="200" href="#P3"></use><use x="5209" y="538" href="#P7"></use><use x="5251" y="876" href="#P1"></use><use x="5237" y="1346" href="#P6"></use><use x="5139" y="1523" href="#P1"></use><use x="4923" y="2005" href="#P7"></use><use x="4944" y="2194" href="#P1"></use><use x="5072" y="2419" href="#P2"></use><use x="5155" y="2900" href="#P0"></use><use x="4840" y="3143" href="#P5"></use><use x="5061" y="3335" href="#P0"></use><use x="4886" y="3886" href="#P2"></use><use x="4951" y="4081" href="#P3"></use><use x="5015" y="4384" href="#P8"></use><use x="5224" y="4652" href="#P7"></use><use x="5002" y="5041" href="#P8"></use></g></svg>