<svg width="1920" height="1080" viewBox="0 0 1920 1080" xmlns="http://www.w3.org/2000/svg"><rect width="1920" height="1080" fill="#bdffd9"/><path d="M 0,1080 C 0,1080 0,120 0,120 C 140.55502392344502,132.51674641148327 281.11004784689004,145.0334928229665 384,152 C 486.88995215310996,158.9665071770335 552.1148325358851,160.38277511961726 701,164 C 849.8851674641149,167.61722488038274 1082.4306220095693,173.43540669856458 1223,155 C 1363.5693779904307,136.56459330143542 1412.1626794258373,93.8755980861244 1513,84 C 1613.8373205741627,74.1244019138756 1766.9186602870814,97.0622009569378 1920,120 C 1920,120 1920,1080 1920,1080 Z" fill="#88c39d" opacity="0.06666666666666667"/><path d="M 0,1080 C 0,1080 0,240 0,240 C 138.49760765550235,250.00956937799043 276.9952153110047,260.01913875598086 416,271 C 555.0047846889953,281.98086124401914 694.5167464114833,293.933014354067 798,276 C 901.4832535885167,258.066985645933 968.9377990430623,210.2488038277512 1091,198 C 1213.0622009569377,185.7511961722488 1389.7320574162677,209.07177033492823 1537,222 C 1684.2679425837323,234.92822966507177 1802.1339712918661,237.46411483253587 1920,240 C 1920,240 1920,1080 1920,1080 Z" fill="#88c39d" opacity="0.13333333333333333"/><path d="M 0,1080 C 0,1080 0,360 0,360 C 122.58373205741626,365.1291866028708 245.1674641148325,370.2583732057416 376,377 C 506.8325358851675,383.7416267942584 645.9138755980861,392.09569377990437 767,387 C 888.0861244019139,381.90430622009563 991.177033492823,363.35885167464113 1130,365 C 1268.822966507177,366.64114832535887 1443.3779904306223,388.4688995215311 1581,391 C 1718.6220095693777,393.5311004784689 1819.311004784689,376.76555023923447 1920,360 C 1920,360 1920,1080 1920,1080 Z" fill="#88c39d" opacity="0.2"/><path d="M 0,1080 C 0,1080 0,480 0,480 C 102.22966507177034,490.11483253588517 204.45933014354068,500.22966507177034 321,502 C 437.5406698564593,503.77033492822966 568.3923444976077,497.19617224880375 731,489 C 893.6076555023923,480.80382775119625 1087.9712918660287,470.98564593301444 1208,480 C 1328.0287081339713,489.01435406698556 1373.7224880382776,516.8612440191388 1480,520 C 1586.2775119617224,523.1387559808612 1753.1387559808613,501.5693779904306 1920,480 C 1920,480 1920,1080 1920,1080 Z" fill="#88c39d" opacity="0.26666666666666666"/><path d="M 0,1080 C 0,1080 0,600 0,600 C 122.8038277511962,578.7655502392345 245.6076555023924,557.5311004784689 377,568 C 508.3923444976076,578.4688995215311 648.3732057416266,620.6411483253588 778,619 C 907.6267942583734,617.3588516746412 1026.8995215311006,571.9043062200957 1141,558 C 1255.1004784688994,544.0956937799043 1364.0287081339713,561.7416267942584 1493,574 C 1621.9712918660287,586.2583732057416 1770.9856459330144,593.1291866028707 1920,600 C 1920,600 1920,1080 1920,1080 Z" fill="#88c39d" opacity="0.3333333333333333"/><path d="M 0,1080 C 0,1080 0,720 0,720 C 147.37799043062205,717.4641148325359 294.7559808612441,714.9282296650717 422,703 C 549.2440191387559,691.0717703349283 656.3540669856458,669.7511961722488 770,676 C 883.6459330143542,682.2488038277512 1003.8277511961724,716.0669856459331 1126,737 C 1248.1722488038276,757.9330143540669 1372.3349282296651,765.9808612440193 1505,761 C 1637.6650717703349,756.0191387559807 1778.8325358851675,738.0095693779904 1920,720 C 1920,720 1920,1080 1920,1080 Z" fill="#88c39d" opacity="0.4"/><path d="M 0,1080 C 0,1080 0,840 0,840 C 154.20095693779905,818.88995215311 308.4019138755981,797.7799043062201 444,800 C 579.5980861244019,802.2200956937799 696.5933014354066,827.7703349282297 822,836 C 947.4066985645934,844.2296650717703 1081.2248803827754,835.1387559808612 1187,838 C 1292.7751196172246,840.8612440191388 1370.5071770334928,855.6746411483253 1488,858 C 1605.4928229665072,860.3253588516747 1762.7464114832537,850.1626794258373 1920,840 C 1920,840 1920,1080 1920,1080 Z" fill="#88c39d" opacity="0.4666666666666667"/><path d="M 0,1080 C 0,1080 0,960 0,960 C 90,941.2344497607655 180,922.4688995215311 323,932 C 466,941.5311004784689 662,979.3588516746411 816,993 C 970,1006.6411483253589 1082,996.0956937799045 1184,975 C 1286,953.9043062200955 1378,922.2583732057416 1499,918 C 1620,913.7416267942584 1770,936.8708133971293 1920,960 C 1920,960 1920,1080 1920,1080 Z" fill="#88c39d" opacity="0.5333333333333333"/></svg>